<svg width="114" height="111" viewBox="0 0 114 111" fill="none" xmlns="http://www.w3.org/2000/svg">
<ellipse cx="56" cy="45.5" rx="17" ry="16.5" fill="#BEEB2C"/>
<circle cx="19.5" cy="85.5" r="14.5" fill="#BEEB2C"/>
<circle cx="16.5" cy="34.5" r="11.5" fill="#86D521"/>
<circle cx="102.5" cy="50.5" r="11.5" fill="#FFBB28"/>
<circle cx="42" cy="70" r="10" fill="#8CD318"/>
<circle cx="36" cy="16" r="8" fill="#84D90D"/>
<circle cx="60" cy="96" r="8" fill="#F9DB2C"/>
<circle cx="46" cy="104" r="7" fill="#FFD722"/>
<circle cx="17" cy="63" r="7" fill="#BEE83C"/>
<circle cx="95" cy="66" r="7" fill="#FFBB26"/>
<circle cx="67" cy="67" r="7" fill="#FDC321"/>
<circle cx="87" cy="84" r="8" fill="#FFC227"/>
<circle cx="80" cy="58" r="8" fill="#FFD52F"/>
<circle cx="90" cy="28" r="8" fill="#C4EE28"/>
<circle cx="64" cy="11" r="8" fill="#8FDC14"/>
<circle cx="51.5" cy="15.5" r="4.5" fill="#87DA10"/>
<circle cx="78.5" cy="21.5" r="4.5" fill="#C4ED34"/>
<circle cx="85.5" cy="17.5" r="2.5" fill="#BBEC17"/>
<circle cx="71.5" cy="19.5" r="2.5" fill="#B9E329"/>
<circle cx="72.5" cy="2.5" r="2.5" fill="#84D91A"/>
<circle cx="53.5" cy="8.5" r="2.5" fill="#84D51E"/>
<circle cx="10.5" cy="53.5" r="2.5" fill="#87D712"/>
<circle cx="31.5" cy="98.5" r="2.5" fill="#C8E555"/>
<circle cx="79.5" cy="92.5" r="2.5" fill="#FCD72C"/>
<circle cx="104.5" cy="64.5" r="2.5" fill="#FEBE36"/>
<circle cx="91.5" cy="39.5" r="2.5" fill="#BDEF2C"/>
<circle cx="109.5" cy="37.5" r="2.5" fill="#CAEA4B"/>
<circle cx="100.5" cy="34.5" r="4.5" fill="#C1E626"/>
<circle cx="99.5" cy="81.5" r="4.5" fill="#FFBD24"/>
<circle cx="72.5" cy="89.5" r="4.5" fill="#FFDD36"/>
<circle cx="38.5" cy="93.5" r="4.5" fill="#BFEE1B"/>
<circle cx="47.5" cy="90.5" r="4.5" fill="#F2D724"/>
<circle cx="18.5" cy="50.5" r="4.5" fill="#85D814"/>
<circle cx="4.5" cy="60.5" r="4.5" fill="#84D820"/>
<circle cx="46.5" cy="6.5" r="4.5" fill="#88DA0C"/>
<circle cx="22.5" cy="18.5" r="4.5" fill="#86D629"/>
</svg>
