<svg width="378" height="357" viewBox="0 0 378 357" fill="none" xmlns="http://www.w3.org/2000/svg">
<path d="M183.054 56.546C189.181 52.8749 196.824 52.8475 202.978 56.4744L314.261 122.068C314.591 122.262 314.589 122.74 314.257 122.931L192.988 192.933L70.4872 123.995L183.054 56.546Z" fill="#DB7E0F" stroke="black"/>
<path d="M68.9275 125.874C68.9487 124.738 70.1766 124.037 71.1657 124.597L192.249 193.115C192.405 193.204 192.502 193.37 192.502 193.55L192.503 321.352C192.503 324.812 188.76 326.978 185.76 325.254L73.9276 260.979C69.3442 258.345 66.558 253.424 66.6561 248.139L68.9275 125.874Z" fill="#E29942" stroke="black"/>
<path d="M192.761 193.088C192.761 192.908 192.857 192.742 193.013 192.653L314.747 123.267C315.08 123.078 315.494 123.318 315.494 123.702L315.493 242.269C315.493 243.791 314.724 245.21 313.448 246.041L192.761 324.592L192.761 193.088Z" fill="#E3891D" stroke="black"/>
</svg>
