<svg width="378" height="357" viewBox="0 0 378 357" fill="none" xmlns="http://www.w3.org/2000/svg">
<path d="M69.4922 124L182.796 56.1092C189.081 52.3438 196.921 52.3155 203.232 56.0355L314.515 121.629C315.175 122.018 315.171 122.974 314.507 123.357L192.992 193.5L69.4922 124Z" fill="#AF5FCF"/>
<path d="M73.6791 261.405C68.9373 258.68 66.0546 253.59 66.1562 248.121L68.4279 125.857C68.456 124.342 70.0935 123.407 71.4125 124.154L192.495 192.672C192.809 192.85 193.003 193.182 193.003 193.542L193.003 321.345C193.003 325.189 188.844 327.596 185.511 325.68L73.6791 261.405Z" fill="#AF5FCF"/>
<path d="M192.262 325.506L192.261 193.08C192.261 192.721 192.454 192.389 192.766 192.211L314.499 122.825C315.165 122.445 315.994 122.926 315.994 123.694L315.994 242.261C315.994 243.953 315.139 245.529 313.721 246.452L192.262 325.506Z" fill="#9446B3"/>
</svg>
