<svg width="378" height="357" viewBox="0 0 378 357" fill="none" xmlns="http://www.w3.org/2000/svg">
<path d="M69.4922 124.008L182.796 56.117C189.081 52.3516 196.921 52.3233 203.232 56.0433L314.515 121.637C315.175 122.026 315.171 122.982 314.507 123.365L192.992 193.508L69.4922 124.008Z" fill="#3DA04D"/>
<path d="M73.6791 261.413C68.9373 258.688 66.0546 253.597 66.1562 248.129L68.4279 125.865C68.456 124.35 70.0935 123.415 71.4125 124.161L192.495 192.68C192.809 192.857 193.003 193.19 193.003 193.55L193.003 321.352C193.003 325.197 188.844 327.603 185.511 325.688L73.6791 261.413Z" fill="#45B04E"/>
<path d="M192.262 325.514L192.261 193.088C192.261 192.728 192.454 192.397 192.766 192.219L314.499 122.833C315.165 122.453 315.994 122.934 315.994 123.702L315.994 242.269C315.994 243.96 315.139 245.537 313.721 246.46L192.262 325.514Z" fill="#3A8C41"/>
</svg>
