<svg width="378" height="357" viewBox="0 0 378 357" fill="none" xmlns="http://www.w3.org/2000/svg">
<path d="M183.054 56.5382C189.181 52.867 196.824 52.8396 202.978 56.4666L314.261 122.06C314.591 122.254 314.589 122.732 314.257 122.924L192.988 192.925L70.4872 123.987L183.054 56.5382Z" fill="#AF5FCF" stroke="black"/>
<path d="M68.9275 125.866C68.9487 124.73 70.1766 124.03 71.1657 124.589L192.249 193.107C192.405 193.196 192.502 193.362 192.502 193.542L192.503 321.344C192.503 324.805 188.76 326.97 185.76 325.246L73.9276 260.972C69.3442 258.337 66.558 253.417 66.6561 248.131L68.9275 125.866Z" fill="#AF5FCF" stroke="black"/>
<path d="M192.761 193.08C192.761 192.9 192.857 192.734 193.013 192.645L314.747 123.26C315.08 123.07 315.494 123.31 315.494 123.694L315.493 242.261C315.493 243.784 314.724 245.203 313.448 246.033L192.761 324.584L192.761 193.08Z" fill="#9446B3" stroke="black"/>
</svg>
