<svg width="577" height="637" viewBox="0 0 577 637" fill="none" xmlns="http://www.w3.org/2000/svg">
<path d="M334.49 481L455.49 410V553.5L327.99 629L334.49 481Z" fill="#E3A21F"/>
<path d="M213.49 411.5L334.49 481L334.933 619.247C334.958 627.039 326.455 631.865 319.778 627.847L214.49 564.5L213.49 411.5Z" fill="#F4C223"/>
<path d="M157.99 278.5L215.49 264L213.99 408.5L69.4902 331L157.99 278.5Z" fill="#3DA04D"/>
<rect x="274.49" y="155" width="90" height="92" fill="#645F6D"/>
<path d="M66.4339 336.372C66.4593 332.588 70.5152 330.203 73.8342 332.019L214.49 409L215.49 565L72.9258 480.887C68.3227 478.171 65.5124 473.211 65.5484 467.867L66.4339 336.372Z" fill="#45B04E"/>
<path d="M455.49 265.001L573.953 194.312C575.289 193.515 576.983 194.481 576.978 196.037L576.49 338.001L455.49 410.501V265.001Z" fill="#026FCA"/>
<path d="M335.49 194.5L455.978 124.587C456.603 124.225 457.376 124.227 457.998 124.595L576.49 194.5L455.49 265L335.49 194.5Z" fill="#0C8EF1"/>
<path d="M215.49 122L332.986 56.7781C336.086 55.057 339.866 55.1066 342.92 56.9085L457.49 124.5L335.49 194.5L215.49 122Z" fill="#FF80CB"/>
<path d="M214.49 265.5L335.857 194.5L455.49 265L334.49 334.5L214.49 265.5Z" fill="#0FCCFF"/>
<path d="M213.994 411.966L214.491 265.5L334.49 334.5L334.49 481L213.994 411.966Z" fill="#00C9F5"/>
<path d="M69.4902 124L182.794 56.1092C189.079 52.3438 196.919 52.3155 203.23 56.0355L314.513 121.629C315.173 122.018 315.169 122.974 314.506 123.357L192.99 193.5L69.4902 124Z" fill="#ADE843"/>
<path d="M73.6791 261.405C68.9373 258.68 66.0546 253.59 66.1562 248.121L68.4279 125.857C68.456 124.342 70.0935 123.407 71.4125 124.154L192.495 192.672C192.809 192.85 193.003 193.182 193.003 193.542L193.003 321.345C193.003 325.189 188.844 327.596 185.511 325.68L73.6791 261.405Z" fill="#98DA2E"/>
<path d="M192.262 325.506L192.261 193.08C192.261 192.721 192.454 192.389 192.766 192.211L314.499 122.825C315.165 122.445 315.994 122.926 315.994 123.694L315.994 242.261C315.994 243.953 315.139 245.529 313.721 246.452L192.262 325.506Z" fill="#81B526"/>
<path d="M334.49 334.5L455.49 265V410.5L334.49 481V334.5Z" fill="#00B5E8"/>
<path d="M455.49 410.5L576.49 338V474.854C576.49 478.358 574.656 481.606 571.656 483.417L455.49 553.5V410.5Z" fill="#E3891D"/>
</svg>
